<?xml version="1.0" encoding="UTF-8"?>
<!DOCTYPE svg PUBLIC "-//W3C//DTD SVG 1.1//EN" "http://www.w3.org/Graphics/SVG/1.1/DTD/svg11.dtd">
<svg xmlns="http://www.w3.org/2000/svg" version="1.1" width="320px" height="512px" style="shape-rendering:geometricPrecision; text-rendering:geometricPrecision; image-rendering:optimizeQuality; fill-rule:evenodd; clip-rule:evenodd" xmlns:xlink="http://www.w3.org/1999/xlink">
<g><path style="opacity:0.994" fill="#f39c12" d="M58.427 225.456L124 159.882V456a24 24 0 0 0 24 24h24a24 24 0 0 0 24-24V159.882l65.573 65.574a24 24 0 0 0 33.941 0l16.971-16.971a24 24 0 0 0 0-33.941L176.971 39.029a24 24 0 0 0-33.941 0L7.515 174.544a24 24 0 0 0 0 33.941l16.971 16.971a24 24 0 0 0 33.941 0z"></path></g>
</svg>
