<?xml version="1.0" encoding="UTF-8"?>
<!DOCTYPE svg PUBLIC "-//W3C//DTD SVG 1.1//EN" "http://www.w3.org/Graphics/SVG/1.1/DTD/svg11.dtd">
<svg xmlns="http://www.w3.org/2000/svg" version="1.1" width="512px" height="512px" style="shape-rendering:geometricPrecision; text-rendering:geometricPrecision; image-rendering:optimizeQuality; fill-rule:evenodd; clip-rule:evenodd" xmlns:xlink="http://www.w3.org/1999/xlink">
<g><path style="opacity:0.994" fill="#f39c12" d="M 249.5,-0.5 C 253.5,-0.5 257.5,-0.5 261.5,-0.5C 265.397,1.88599 268.897,4.88599 272,8.5C 312.237,55.3141 352.237,102.314 392,149.5C 395.301,158.595 393.134,166.095 385.5,172C 381.696,173.952 377.696,174.619 373.5,174C 354.469,164.134 335.803,153.634 317.5,142.5C 316.914,142.709 316.414,143.043 316,143.5C 303,260.5 290,377.5 277,494.5C 275.403,503.081 270.57,508.748 262.5,511.5C 257.833,511.5 253.167,511.5 248.5,511.5C 240.43,508.748 235.597,503.081 234,494.5C 221,377.5 208,260.5 195,143.5C 193.493,142.465 191.993,142.632 190.5,144C 173.288,154.773 155.621,164.773 137.5,174C 125.659,174.497 118.993,168.83 117.5,157C 117.656,153.183 118.822,149.683 121,146.5C 160.667,100.167 200.333,53.8333 240,7.5C 242.772,4.21655 245.939,1.54988 249.5,-0.5 Z"/></g>
</svg>
