<?xml version="1.0" encoding="iso-8859-1"?>
<svg
  t="1601111091728"
  class="icon"
  viewBox="0 0 1024 1024"
  version="1.1"
  xmlns="http://www.w3.org/2000/svg"
  p-id="27106"
  width="14"
  height="14"
>
  <path
    style="fill:#34495e"
    d="M877.184 316.842667l24.234667 24.234666c12.885333 12.885333 20.138667 30.421333 20.138666 48.64v438.186667c0 38.016-30.805333 68.864-68.821333 68.864h-300.458667a68.864 68.864 0 0 1-61.610666-38.058667l366.378666-366.336c11.264-11.306667 18.261333-26.112 19.797334-41.898666l0.341333-6.826667V316.885333zM735.018667 85.333333C776.789333 85.333333 810.666667 119.210667 810.666667 160.981333v233.514667c0 20.053333-7.978667 39.296-22.186667 53.504l-340.48 340.48a75.648 75.648 0 0 1-107.008 0l-233.514667-233.472a75.648 75.648 0 0 1 0-107.008L448 107.52c14.208-14.208 33.450667-22.186667 53.504-22.186667h233.514667z m-160.085334 145.066667a90.666667 90.666667 0 1 0 0 181.333333 90.666667 90.666667 0 0 0 0-181.333333z"
    p-id="27107"
  ></path>
</svg>